<svg width="31" height="31" viewBox="0 0 31 31" fill="none" xmlns="http://www.w3.org/2000/svg">
<g clip-path="url(#clip0_105_8208)">
<path d="M4.17845 12.5806C4.73648 10.3401 5.9546 8.31884 7.67493 6.77881C9.39527 5.23878 11.5385 4.25098 13.8269 3.94341C16.1152 3.63584 18.4432 4.0227 20.5092 5.05384C22.5751 6.08498 24.2836 7.71286 25.4134 9.72651C24.3873 9.78028 23.3274 9.98304 22.2691 10.2626C20.3919 10.7588 18.2322 11.5806 15.8067 12.6405L15.8006 12.6282L14.4027 13.2641C11.4703 14.5959 9.12315 15.5161 7.27522 16.0045C5.36432 16.5099 4.35664 16.45 3.87584 16.2734C3.82075 15.5674 3.83 14.8578 3.90349 14.1535C2.63467 14.344 1.86663 15.0322 1.627 15.6589C1.55757 15.8263 1.52702 16.0073 1.53767 16.1883C1.54831 16.3692 1.59986 16.5453 1.68844 16.7035C1.87431 17.0414 2.27984 17.4254 3.05403 17.7127C3.99105 18.0598 5.46109 18.0168 7.54097 17.4869C9.59165 16.9646 12.1093 16.003 15.0571 14.662C18.0386 13.3072 20.6469 12.3025 22.8221 11.7465C24.968 11.1981 26.822 11.0522 28.2168 11.5683C29.2306 11.9446 29.9726 12.5299 30.3796 13.2718C30.7913 14.0214 30.8159 14.854 30.5333 15.6052C30.0094 16.9907 28.4979 18.0168 26.544 18.1443C25.9853 20.3842 24.7668 22.4047 23.0464 23.944C21.326 25.4833 19.183 26.4705 16.8951 26.7777C14.6071 27.0849 12.2796 26.6979 10.2141 25.6669C8.14862 24.636 6.44033 23.0085 5.31055 20.9953C6.33513 20.9416 7.39504 20.7388 8.45341 20.4592C10.3305 19.9631 12.4903 19.1412 14.9158 18.0813L14.9219 18.0936L16.3198 17.4577C19.2522 16.1259 21.5993 15.2058 23.4472 14.7173C25.3581 14.2119 26.3658 14.2718 26.8466 14.4485C26.902 15.156 26.8927 15.8671 26.819 16.5729C28.0939 16.3855 28.8574 15.6927 29.0955 15.0614C29.1637 14.8926 29.1935 14.7108 29.1829 14.5291C29.1723 14.3474 29.1214 14.1703 29.034 14.0107C28.8482 13.6727 28.4472 13.2918 27.6838 13.0092C26.7468 12.662 25.2783 12.705 23.2015 13.235C21.1554 13.7572 18.6393 14.7204 15.693 16.0614C12.7099 17.4162 10.0986 18.4208 7.92038 18.9769C5.77138 19.5237 3.91424 19.6681 2.51947 19.1535C1.49796 18.7741 0.752957 18.1858 0.342819 17.4439C0.146539 17.0901 0.0312246 16.6971 0.00519258 16.2933C-0.0208395 15.8896 0.0430598 15.4851 0.192282 15.109C0.720699 13.7296 2.23222 12.7127 4.17845 12.5806Z" fill="#FF3CAC"/>
</g>
<defs>
<clipPath id="clip0_105_8208">
<rect width="30.7219" height="30.7219" fill="white"/>
</clipPath>
</defs>
</svg>
