<svg width="115" height="31" viewBox="0 0 115 31" fill="none" xmlns="http://www.w3.org/2000/svg">
<g clip-path="url(#clip0_105_8207)">
<path d="M4.17845 12.5806C4.73648 10.3401 5.9546 8.31884 7.67493 6.77881C9.39527 5.23878 11.5385 4.25098 13.8269 3.94341C16.1152 3.63584 18.4432 4.0227 20.5092 5.05384C22.5751 6.08498 24.2836 7.71286 25.4134 9.72651C24.3873 9.78028 23.3274 9.98304 22.2691 10.2626C20.3919 10.7588 18.2322 11.5806 15.8067 12.6405L15.8006 12.6282L14.4027 13.2641C11.4703 14.5959 9.12315 15.5161 7.27522 16.0045C5.36432 16.5099 4.35664 16.45 3.87584 16.2734C3.82075 15.5674 3.83 14.8578 3.90349 14.1535C2.63467 14.344 1.86663 15.0322 1.627 15.6589C1.55757 15.8263 1.52702 16.0073 1.53767 16.1883C1.54831 16.3692 1.59986 16.5453 1.68844 16.7035C1.87431 17.0414 2.27984 17.4254 3.05403 17.7127C3.99105 18.0598 5.46109 18.0168 7.54097 17.4869C9.59165 16.9646 12.1093 16.003 15.0571 14.662C18.0386 13.3072 20.6469 12.3025 22.8221 11.7465C24.968 11.1981 26.822 11.0522 28.2168 11.5683C29.2306 11.9446 29.9726 12.5299 30.3796 13.2718C30.7913 14.0214 30.8159 14.854 30.5333 15.6052C30.0094 16.9907 28.4979 18.0168 26.544 18.1443C25.9853 20.3842 24.7668 22.4047 23.0464 23.944C21.326 25.4833 19.183 26.4705 16.8951 26.7777C14.6071 27.0849 12.2796 26.6979 10.2141 25.6669C8.14862 24.636 6.44033 23.0085 5.31055 20.9953C6.33513 20.9416 7.39504 20.7388 8.45341 20.4592C10.3305 19.9631 12.4903 19.1412 14.9158 18.0813L14.9219 18.0936L16.3198 17.4577C19.2522 16.1259 21.5993 15.2058 23.4472 14.7173C25.3581 14.2119 26.3658 14.2718 26.8466 14.4485C26.902 15.156 26.8927 15.8671 26.819 16.5729C28.0939 16.3855 28.8574 15.6927 29.0955 15.0614C29.1637 14.8926 29.1935 14.7108 29.1829 14.5291C29.1723 14.3474 29.1214 14.1703 29.034 14.0107C28.8482 13.6727 28.4472 13.2918 27.6838 13.0092C26.7468 12.662 25.2783 12.705 23.2015 13.235C21.1554 13.7572 18.6393 14.7204 15.693 16.0614C12.7099 17.4162 10.0986 18.4208 7.92038 18.9769C5.77138 19.5237 3.91424 19.6681 2.51947 19.1535C1.49796 18.7741 0.752957 18.1858 0.342819 17.4439C0.146539 17.0901 0.0312246 16.6971 0.00519258 16.2933C-0.0208395 15.8896 0.0430598 15.4851 0.192282 15.109C0.720699 13.7296 2.23222 12.7127 4.17845 12.5806Z" fill="#FF3CAC"/>
</g>
<path d="M43.0656 12.7761C42.6951 12.3555 42.2545 12.0251 41.7439 11.7848C41.2332 11.5344 40.7225 11.4093 40.2119 11.4093C39.7212 11.4093 39.2606 11.5044 38.8301 11.6946C38.4095 11.8749 38.034 12.1352 37.7036 12.4757C37.3832 12.8061 37.1328 13.1916 36.9526 13.6322C36.7724 14.0728 36.6823 14.5484 36.6823 15.059C36.6823 15.5697 36.7724 16.0503 36.9526 16.5009C37.1328 16.9415 37.3832 17.327 37.7036 17.6574C38.034 17.9879 38.4095 18.2482 38.8301 18.4385C39.2606 18.6287 39.7212 18.7238 40.2119 18.7238C40.7225 18.7238 41.2282 18.6137 41.7288 18.3934C42.2295 18.1631 42.6751 17.8527 43.0656 17.4622L44.2521 18.7088C43.9017 19.0693 43.4962 19.3847 43.0356 19.655C42.585 19.9254 42.1093 20.1357 41.6087 20.2859C41.118 20.426 40.6174 20.4961 40.1067 20.4961C39.3357 20.4961 38.6148 20.361 37.9439 20.0906C37.283 19.8102 36.7023 19.4247 36.2016 18.9341C35.711 18.4435 35.3255 17.8677 35.0451 17.2068C34.7648 16.546 34.6246 15.8401 34.6246 15.0891C34.6246 14.3281 34.7648 13.6272 35.0451 12.9863C35.3255 12.3355 35.721 11.7647 36.2317 11.2741C36.7423 10.7835 37.3281 10.403 37.989 10.1326C38.6598 9.86226 39.3908 9.72708 40.1818 9.72708C40.6925 9.72708 41.1881 9.79717 41.6688 9.93735C42.1594 10.0675 42.625 10.2578 43.0656 10.5081C43.5062 10.7484 43.8967 11.0438 44.2371 11.3943L43.0656 12.7761ZM49.1428 12.2804C49.9739 12.2804 50.7048 12.4506 51.3356 12.7911C51.9765 13.1315 52.4721 13.6071 52.8226 14.2179C53.1831 14.8287 53.3633 15.5397 53.3633 16.3507C53.3633 17.1618 53.1831 17.8727 52.8226 18.4835C52.4721 19.0943 51.9765 19.5749 51.3356 19.9254C50.7048 20.2658 49.9739 20.4361 49.1428 20.4361C48.3017 20.4361 47.5607 20.2658 46.9199 19.9254C46.279 19.5749 45.7784 19.0943 45.4179 18.4835C45.0675 17.8727 44.8922 17.1618 44.8922 16.3507C44.8922 15.5397 45.0675 14.8287 45.4179 14.2179C45.7784 13.6071 46.279 13.1315 46.9199 12.7911C47.5607 12.4506 48.3017 12.2804 49.1428 12.2804ZM49.1428 13.8575C48.6922 13.8575 48.2917 13.9676 47.9412 14.1879C47.6008 14.3982 47.3354 14.6936 47.1452 15.0741C46.9549 15.4445 46.8598 15.8751 46.8598 16.3657C46.8598 16.8664 46.9549 17.307 47.1452 17.6875C47.3354 18.068 47.6008 18.3634 47.9412 18.5736C48.2917 18.7839 48.6922 18.889 49.1428 18.889C49.5834 18.889 49.9739 18.7839 50.3143 18.5736C50.6548 18.3634 50.9201 18.068 51.1104 17.6875C51.3006 17.307 51.3957 16.8664 51.3957 16.3657C51.3957 15.8751 51.3006 15.4445 51.1104 15.0741C50.9201 14.6936 50.6548 14.3982 50.3143 14.1879C49.9739 13.9676 49.5834 13.8575 49.1428 13.8575ZM59.8207 14.4432C59.4302 14.2129 59.0246 14.0377 58.6041 13.9175C58.1835 13.7874 57.803 13.7223 57.4626 13.7223C57.1422 13.7223 56.8818 13.7824 56.6816 13.9025C56.4813 14.0127 56.3812 14.2029 56.3812 14.4733C56.3812 14.7036 56.4813 14.8888 56.6816 15.029C56.8918 15.1692 57.1572 15.2893 57.4776 15.3895C57.798 15.4796 58.1385 15.5797 58.4989 15.6899C58.8594 15.8 59.1999 15.9452 59.5203 16.1254C59.8507 16.3057 60.1161 16.546 60.3163 16.8464C60.5266 17.1468 60.6317 17.5423 60.6317 18.0329C60.6317 18.5736 60.4865 19.0242 60.1962 19.3847C59.9058 19.7351 59.5203 20.0005 59.0396 20.1807C58.559 20.3509 58.0333 20.4361 57.4626 20.4361C56.8618 20.4361 56.261 20.3409 55.6602 20.1507C55.0695 19.9604 54.5638 19.6801 54.1433 19.3096L54.8191 18.0029C55.1896 18.3233 55.6252 18.5736 56.1258 18.7539C56.6365 18.9241 57.1071 19.0092 57.5377 19.0092C57.768 19.0092 57.9733 18.9792 58.1535 18.9191C58.3337 18.859 58.4739 18.7739 58.574 18.6637C58.6742 18.5436 58.7242 18.3884 58.7242 18.1981C58.7242 17.9378 58.6241 17.7375 58.4238 17.5974C58.2236 17.4472 57.9632 17.322 57.6428 17.2219C57.3324 17.1117 56.997 17.0066 56.6365 16.9065C56.276 16.7963 55.9356 16.6561 55.6152 16.4859C55.3048 16.3057 55.0494 16.0704 54.8492 15.78C54.6489 15.4896 54.5488 15.1041 54.5488 14.6235C54.5488 14.0828 54.689 13.6372 54.9693 13.2867C55.2497 12.9363 55.6202 12.6809 56.0808 12.5207C56.5414 12.3505 57.042 12.2654 57.5827 12.2654C58.1034 12.2654 58.6241 12.3405 59.1448 12.4907C59.6655 12.6309 60.1261 12.8311 60.5266 13.0915L59.8207 14.4432ZM68.0427 15.8851C68.0427 15.2943 67.8875 14.8337 67.5771 14.5033C67.2767 14.1729 66.8512 14.0077 66.3005 14.0077C65.6696 14.0177 65.169 14.253 64.7985 14.7136C64.438 15.1642 64.2578 15.7299 64.2578 16.4108H63.7321C63.7321 15.4395 63.8673 14.6535 64.1376 14.0527C64.408 13.4419 64.7935 12.9963 65.2941 12.716C65.8048 12.4256 66.4006 12.2804 67.0815 12.2804C67.6923 12.2804 68.213 12.4056 68.6435 12.6559C69.0841 12.9062 69.4195 13.2617 69.6498 13.7223C69.8901 14.1729 70.0103 14.7186 70.0103 15.3594V20.361H68.0427V15.8851ZM73.7952 15.8851C73.7952 15.2943 73.64 14.8337 73.3296 14.5033C73.0192 14.1729 72.5887 14.0077 72.0379 14.0077C71.4071 14.0177 70.9115 14.253 70.551 14.7136C70.1905 15.1642 70.0103 15.7299 70.0103 16.4108H69.4846C69.4846 15.4395 69.6198 14.6535 69.8901 14.0527C70.1605 13.4419 70.546 12.9963 71.0467 12.716C71.5473 12.4256 72.1431 12.2804 72.834 12.2804C73.4348 12.2804 73.9504 12.4056 74.381 12.6559C74.8216 12.9062 75.162 13.2617 75.4023 13.7223C75.6427 14.1729 75.7628 14.7186 75.7628 15.3594V20.361H73.7952V15.8851ZM62.3052 12.3555H64.2578V20.361H62.3052V12.3555ZM81.4555 12.2804C82.2866 12.2804 83.0175 12.4506 83.6483 12.7911C84.2892 13.1315 84.7848 13.6071 85.1353 14.2179C85.4957 14.8287 85.676 15.5397 85.676 16.3507C85.676 17.1618 85.4957 17.8727 85.1353 18.4835C84.7848 19.0943 84.2892 19.5749 83.6483 19.9254C83.0175 20.2658 82.2866 20.4361 81.4555 20.4361C80.6144 20.4361 79.8734 20.2658 79.2326 19.9254C78.5917 19.5749 78.0911 19.0943 77.7306 18.4835C77.3802 17.8727 77.2049 17.1618 77.2049 16.3507C77.2049 15.5397 77.3802 14.8287 77.7306 14.2179C78.0911 13.6071 78.5917 13.1315 79.2326 12.7911C79.8734 12.4506 80.6144 12.2804 81.4555 12.2804ZM81.4555 13.8575C81.0049 13.8575 80.6044 13.9676 80.2539 14.1879C79.9135 14.3982 79.6481 14.6936 79.4579 15.0741C79.2676 15.4445 79.1725 15.8751 79.1725 16.3657C79.1725 16.8664 79.2676 17.307 79.4579 17.6875C79.6481 18.068 79.9135 18.3634 80.2539 18.5736C80.6044 18.7839 81.0049 18.889 81.4555 18.889C81.896 18.889 82.2866 18.7839 82.627 18.5736C82.9674 18.3634 83.2328 18.068 83.423 17.6875C83.6133 17.307 83.7084 16.8664 83.7084 16.3657C83.7084 15.8751 83.6133 15.4445 83.423 15.0741C83.2328 14.6936 82.9674 14.3982 82.627 14.1879C82.2866 13.9676 81.896 13.8575 81.4555 13.8575ZM85.2343 9.84724H93.8105V11.5445H90.5362V20.361H88.5086V11.5445H85.2343V9.84724ZM99.3627 14.0527C98.802 14.0127 98.3164 14.0978 97.9058 14.3081C97.4953 14.5083 97.1799 14.7987 96.9596 15.1792C96.7393 15.5597 96.6292 15.9953 96.6292 16.4859L96.1035 16.4258C96.1035 15.5347 96.2336 14.7837 96.494 14.1729C96.7543 13.5521 97.1298 13.0815 97.6204 12.761C98.1111 12.4406 98.6918 12.2804 99.3627 12.2804V14.0527ZM94.6766 12.3555H96.6292V20.361H94.6766V12.3555ZM100.734 12.3555H102.687V20.361H100.734V12.3555ZM101.696 8.94606C102.016 8.94606 102.281 9.0512 102.492 9.26147C102.702 9.47175 102.807 9.73709 102.807 10.0575C102.807 10.3679 102.702 10.6333 102.492 10.8535C102.281 11.0638 102.016 11.169 101.696 11.169C101.385 11.169 101.125 11.0638 100.915 10.8535C100.704 10.6333 100.599 10.3679 100.599 10.0575C100.599 9.73709 100.704 9.47175 100.915 9.26147C101.125 9.0512 101.385 8.94606 101.696 8.94606ZM109.836 12.2804C110.597 12.2804 111.263 12.4506 111.834 12.7911C112.405 13.1315 112.845 13.6122 113.156 14.233C113.476 14.8438 113.636 15.5597 113.636 16.3808C113.636 17.1818 113.481 17.8877 113.171 18.4985C112.86 19.0993 112.42 19.5749 111.849 19.9254C111.288 20.2658 110.627 20.4361 109.866 20.4361C109.156 20.4361 108.545 20.2759 108.034 19.9554C107.523 19.625 107.133 19.1544 106.863 18.5436C106.592 17.9328 106.457 17.2119 106.457 16.3808C106.457 15.5196 106.587 14.7837 106.848 14.1729C107.118 13.5621 107.508 13.0965 108.019 12.7761C108.53 12.4456 109.136 12.2804 109.836 12.2804ZM109.401 13.8274C108.96 13.8274 108.565 13.9376 108.214 14.1579C107.874 14.3681 107.609 14.6635 107.418 15.044C107.228 15.4145 107.133 15.8451 107.133 16.3357C107.133 16.8263 107.228 17.2619 107.418 17.6424C107.609 18.0229 107.874 18.3183 108.214 18.5286C108.565 18.7388 108.96 18.844 109.401 18.844C109.851 18.844 110.242 18.7388 110.572 18.5286C110.913 18.3083 111.178 18.0129 111.368 17.6424C111.559 17.2619 111.654 16.8263 111.654 16.3357C111.654 15.8451 111.559 15.4145 111.368 15.044C111.178 14.6635 110.913 14.3681 110.572 14.1579C110.242 13.9376 109.851 13.8274 109.401 13.8274ZM105.18 12.3555H107.133V23.2748H105.18V12.3555Z" fill="white"/>
<defs>
<clipPath id="clip0_105_8207">
<rect width="30.7219" height="30.7219" fill="white"/>
</clipPath>
</defs>
</svg>
