<svg width="24" height="21" viewBox="0 0 24 21" fill="none" xmlns="http://www.w3.org/2000/svg">
<g filter="url(#filter0_d_49_554)">
<path d="M9.83 3.61C12.068 1.087 15.55 0 18.75 0C18.9489 0 19.1397 0.0790175 19.2803 0.21967C19.421 0.360322 19.5 0.551088 19.5 0.75C19.5 3.95 18.413 7.432 15.89 9.67C15.829 10.686 15.515 11.703 15.066 12.596C14.566 13.59 13.871 14.483 13.093 15.074C12.332 15.652 11.348 16.037 10.376 15.675C9.456 15.332 8.836 14.425 8.476 13.137L6.363 11.023C5.075 10.664 4.168 10.044 3.825 9.124C3.463 8.152 3.848 7.168 4.426 6.407C5.017 5.629 5.91 4.934 6.904 4.434C7.797 3.985 8.814 3.671 9.829 3.611M8.5 5.392C8.18394 5.49756 7.87583 5.62555 7.578 5.775C6.742 6.196 6.045 6.757 5.621 7.315C5.184 7.891 5.128 8.325 5.231 8.601C5.314 8.827 5.583 9.158 6.325 9.437C6.494 9.058 6.737 8.534 7.042 7.933C7.43 7.17 7.924 6.272 8.5 5.392ZM10.064 13.177C10.342 13.919 10.674 14.187 10.9 14.272C11.175 14.374 11.61 14.318 12.186 13.882C12.744 13.457 13.305 12.76 13.726 11.924C13.8773 11.6233 14.005 11.316 14.109 11.002C13.2893 11.5336 12.4414 12.0203 11.569 12.46C10.967 12.765 10.443 13.008 10.064 13.177ZM4.035 12.505C4.43809 12.1683 4.95076 11.9912 5.47574 12.0075C6.00071 12.0237 6.50147 12.232 6.883 12.593L6.892 12.603C7.691 13.393 7.678 14.657 6.995 15.468C6.7 15.82 6.297 16.074 5.918 16.26C5.531 16.45 5.114 16.593 4.743 16.7C4.29701 16.8269 3.84343 16.9254 3.385 16.995L3.361 16.998L3.353 16.999H3.35C3.23578 17.0143 3.11957 17.0031 3.01039 16.9662C2.90122 16.9293 2.80201 16.8677 2.72047 16.7863C2.63894 16.7048 2.57726 16.6057 2.54024 16.4966C2.50322 16.3874 2.49185 16.2712 2.507 16.157V16.154L2.508 16.146L2.512 16.122C2.53034 15.9917 2.55235 15.862 2.578 15.733C2.625 15.482 2.699 15.137 2.806 14.762C2.91819 14.3574 3.06507 13.9633 3.245 13.584C3.43 13.204 3.684 12.802 4.035 12.505ZM14.687 4.72C14.5464 4.57955 14.3558 4.50066 14.157 4.50066C13.9583 4.50066 13.7676 4.57955 13.627 4.72L12.92 5.427C12.7875 5.56917 12.7154 5.75722 12.7188 5.95152C12.7223 6.14582 12.801 6.33121 12.9384 6.46862C13.0758 6.60604 13.2612 6.68475 13.4555 6.68818C13.6498 6.6916 13.8378 6.61948 13.98 6.487L14.687 5.78C14.8275 5.63937 14.9063 5.44875 14.9063 5.25C14.9063 5.05125 14.8275 4.86063 14.687 4.72Z" fill="white"/>
</g>
<defs>
<filter id="filter0_d_49_554" x="-1.49951" y="0" width="24.9995" height="25.0056" filterUnits="userSpaceOnUse" color-interpolation-filters="sRGB">
<feFlood flood-opacity="0" result="BackgroundImageFix"/>
<feColorMatrix in="SourceAlpha" type="matrix" values="0 0 0 0 0 0 0 0 0 0 0 0 0 0 0 0 0 0 127 0" result="hardAlpha"/>
<feOffset dy="4"/>
<feGaussianBlur stdDeviation="2"/>
<feComposite in2="hardAlpha" operator="out"/>
<feColorMatrix type="matrix" values="0 0 0 0 0 0 0 0 0 0 0 0 0 0 0 0 0 0 0.25 0"/>
<feBlend mode="normal" in2="BackgroundImageFix" result="effect1_dropShadow_49_554"/>
<feBlend mode="normal" in="SourceGraphic" in2="effect1_dropShadow_49_554" result="shape"/>
</filter>
</defs>
</svg>
